<svg width="137" height="21" viewBox="0 0 137 21" fill="none" xmlns="http://www.w3.org/2000/svg"><path d="M.546875 16V14.291L2.06055 13.998V3.79297L.546875 3.5V1.78125H4.95117L11.1426 11.6445 11.2012 11.6348V3.79297L9.38477 3.5V1.78125H15.2734V3.5L13.75 3.79297V16H10.9961L4.66797 6.23438 4.60938 6.24414V13.998L6.43555 14.291V16H.546875zM21.3379 16.2051C20.3223 16.2051 19.4368 15.9837 18.6816 15.541 17.9329 15.0918 17.3503 14.4766 16.9336 13.6953 16.5234 12.9141 16.3184 12.0221 16.3184 11.0195V10.6289C16.3184 9.58073 16.5137 8.65299 16.9043 7.8457 17.2949 7.0319 17.8451 6.39388 18.5547 5.93164 19.2708 5.46289 20.1139 5.23177 21.084 5.23828 22.5098 5.23828 23.6003 5.6582 24.3555 6.49805 25.1107 7.33138 25.4883 8.50326 25.4883 10.0137V11.5664H19.2773L19.2578 11.625C19.3099 12.3216 19.541 12.8945 19.9512 13.3438 20.3613 13.793 20.944 14.0176 21.6992 14.0176 22.2201 14.0176 22.7051 13.9525 23.1543 13.8223 23.61 13.6855 24.0527 13.487 24.4824 13.2266L25.2539 14.9844C24.8177 15.3359 24.2676 15.6289 23.6035 15.8633 22.946 16.0911 22.1908 16.2051 21.3379 16.2051zM19.2969 9.68164H22.8223V9.42773C22.8223 8.78971 22.6888 8.28516 22.4219 7.91406 22.1615 7.53646 21.7318 7.34766 21.1328 7.34766 20.5599 7.34766 20.1237 7.56576 19.8242 8.00195 19.5247 8.43164 19.3392 8.97526 19.2676 9.63281L19.2969 9.68164zM30.2637 16 27.8027 7.38672 26.5137 7.15234V5.43359H31.6211V7.14258L30.5078 7.35742 31.4844 11.4688 31.6797 12.2793H31.7383L32.002 11.4688 34.1699 5.43359H36.084L38.1836 11.5469 38.457 12.4062H38.5156L38.7695 11.5469 39.9219 7.36719 38.6914 7.14258V5.43359h5V7.15234L42.4609 7.38672 39.7754 16H37.373L35.4395 10.7656 35.0977 9.60352H35.0391L34.6973 10.7754 32.793 16H30.2637zM49.1309 16.2051C48.3431 16.2051 47.6074 16.1302 46.9238 15.9805 46.2467 15.8307 45.5957 15.6159 44.9707 15.3359L44.9414 12.3477H46.9238L47.3047 13.8711C47.526 13.9818 47.7669 14.0697 48.0273 14.1348 48.2943 14.1999 48.597 14.2324 48.9355 14.2324 49.5736 14.2324 50.0228 14.1283 50.2832 13.9199 50.5436 13.7116 50.6738 13.4512 50.6738 13.1387 50.6738 12.8457 50.5339 12.5885 50.2539 12.3672 49.974 12.1393 49.4238 11.9408 48.6035 11.7715 47.347 11.5111 46.4225 11.1074 45.8301 10.5605 45.2441 10.0137 44.9512 9.3138 44.9512 8.46094 44.9512 7.88151 45.0977 7.34766 45.3906 6.85938 45.6901 6.37109 46.1426 5.98372 46.748 5.69727 47.36 5.4043 48.1413 5.25781 49.0918 5.25781 49.8861 5.25781 50.612 5.33594 51.2695 5.49219 51.9336 5.64193 52.4902 5.84049 52.9395 6.08789L52.9688 8.97852H50.9961L50.6934 7.5918C50.3158 7.33138 49.8405 7.20117 49.2676 7.20117 48.7728 7.20117 48.3887 7.30534 48.1152 7.51367 47.8483 7.71549 47.7148 7.97266 47.7148 8.28516 47.7148 8.55859 47.832 8.80599 48.0664 9.02734 48.3073 9.24219 48.8314 9.44076 49.6387 9.62305 50.9473 9.92253 51.901 10.3229 52.5 10.8242 53.099 11.319 53.3984 12.0156 53.3984 12.9141 53.3984 13.8971 53.0404 14.6914 52.3242 15.2969 51.6146 15.9023 50.5501 16.2051 49.1309 16.2051zM54.6289 16V14.291L56.1426 13.998V3.79297L54.6289 3.5V1.78125H65.6641V5.61914H63.4766L63.3496 3.97852H58.9941V7.55273H63.8086V9.75H58.9941v4.0625H63.584L63.7109 12.1133H65.8789V16h-11.25zM67.1484 16V14.291L68.5059 14.1152 71.5332 10.707 68.6719 7.31836 67.3926 7.15234V5.43359H72.627V7.07422L71.8066 7.20117 73.3398 9.21289 74.873 7.20117 73.9648 7.07422V5.43359H79.0137V7.15234L77.832 7.31836 75.127 10.5898 78.1445 14.1152 79.4434 14.291V16H74.0234V14.3691L74.9414 14.2422 73.3105 12.2207 71.7188 14.252 72.6172 14.3691V16H67.1484zM80.293 20.0625V18.3438L81.6699 18.0508V7.44531L80.1465 7.15234V5.43359H84.2871L84.4238 6.66406C84.7363 6.20833 85.1139 5.85677 85.5566 5.60938 85.9993 5.36198 86.5267 5.23828 87.1387 5.23828 87.9915 5.23828 88.7207 5.47266 89.3262 5.94141 89.9316 6.40365 90.3939 7.05143 90.7129 7.88477 91.0384 8.7181 91.2012 9.69141 91.2012 10.8047V11.0098C91.2012 12.0514 91.0384 12.9629 90.7129 13.7441 90.3874 14.5189 89.9186 15.1243 89.3066 15.5605 88.7012 15.9902 87.972 16.2051 87.1191 16.2051 86.0059 16.2051 85.1367 15.8014 84.5117 14.9941V18.0508L85.8887 18.3438V20.0625H80.293zM86.2695 14.0176C86.9987 14.0176 87.526 13.7474 87.8516 13.207 88.1836 12.6667 88.3496 11.9342 88.3496 11.0098V10.8047C88.3496 9.80859 88.1803 9.0013 87.8418 8.38281 87.5033 7.76432 86.9727 7.45508 86.25 7.45508 85.4557 7.45508 84.8763 7.79362 84.5117 8.4707v4.6289C84.8698 13.7116 85.4557 14.0176 86.2695 14.0176zM92.1191 16V14.291L93.4961 13.998V2.77734L91.9727 2.48438V.765625h4.375V13.998L97.7246 14.291V16H92.1191zM103.506 16.2051C102.458 16.2051 101.559 15.9772 100.811 15.5215 100.068 15.0658 99.4987 14.4342 99.1016 13.627 98.7044 12.8132 98.5059 11.8789 98.5059 10.8242V10.6191C98.5059 9.57096 98.7044 8.64323 99.1016 7.83594 99.4987 7.02214 100.068 6.38737 100.811 5.93164 101.559 5.4694 102.451 5.23828 103.486 5.23828 104.528 5.23828 105.42 5.46615 106.162 5.92188 106.911 6.3776 107.484 7.01237 107.881 7.82617 108.278 8.63346 108.477 9.56445 108.477 10.6191V10.8242C108.477 11.8789 108.278 12.8132 107.881 13.627 107.484 14.4342 106.914 15.0658 106.172 15.5215 105.43 15.9772 104.541 16.2051 103.506 16.2051zM103.506 14.0176C104.242 14.0176 104.779 13.7246 105.117 13.1387 105.462 12.5527 105.635 11.7812 105.635 10.8242V10.6191C105.635 9.68164 105.462 8.91667 105.117 8.32422 104.772 7.73177 104.229 7.43555 103.486 7.43555 102.744 7.43555 102.204 7.73177 101.865 8.32422 101.527 8.91667 101.357 9.68164 101.357 10.6191V10.8242C101.357 11.7878 101.527 12.5625 101.865 13.1484 102.204 13.7279 102.751 14.0176 103.506 14.0176zM109.971 16V14.291L111.338 13.998V7.44531L109.824 7.15234V5.43359H113.994L114.102 6.74219 114.121 6.97656C114.642 5.81771 115.423 5.23828 116.465 5.23828 116.634 5.23828 116.816 5.2513 117.012 5.27734 117.214 5.30339 117.396 5.34245 117.559 5.39453L117.256 8.02148 115.84 7.94336C115.436 7.92383 115.107 7.99219 114.854 8.14844 114.606 8.30469 114.385 8.5293 114.189 8.82227V13.998L115.557 14.291V16H109.971zM123.271 16.2051C122.256 16.2051 121.37 15.9837 120.615 15.541 119.867 15.0918 119.284 14.4766 118.867 13.6953 118.457 12.9141 118.252 12.0221 118.252 11.0195V10.6289C118.252 9.58073 118.447 8.65299 118.838 7.8457 119.229 7.0319 119.779 6.39388 120.488 5.93164 121.204 5.46289 122.048 5.23177 123.018 5.23828 124.443 5.23828 125.534 5.6582 126.289 6.49805 127.044 7.33138 127.422 8.50326 127.422 10.0137V11.5664H121.211L121.191 11.625C121.243 12.3216 121.475 12.8945 121.885 13.3438 122.295 13.793 122.878 14.0176 123.633 14.0176 124.154 14.0176 124.639 13.9525 125.088 13.8223 125.544 13.6855 125.986 13.487 126.416 13.2266L127.188 14.9844C126.751 15.3359 126.201 15.6289 125.537 15.8633 124.88 16.0911 124.124 16.2051 123.271 16.2051zM121.23 9.68164H124.756V9.42773C124.756 8.78971 124.622 8.28516 124.355 7.91406 124.095 7.53646 123.665 7.34766 123.066 7.34766 122.493 7.34766 122.057 7.56576 121.758 8.00195 121.458 8.43164 121.273 8.97526 121.201 9.63281L121.23 9.68164zM128.955 16V14.291L130.322 13.998V7.44531L128.809 7.15234V5.43359H132.979L133.086 6.74219 133.105 6.97656C133.626 5.81771 134.408 5.23828 135.449 5.23828 135.618 5.23828 135.801 5.2513 135.996 5.27734 136.198 5.30339 136.38 5.34245 136.543 5.39453L136.24 8.02148 134.824 7.94336C134.421 7.92383 134.092 7.99219 133.838 8.14844 133.59 8.30469 133.369 8.5293 133.174 8.82227V13.998L134.541 14.291V16H128.955z" fill="#fff"/></svg>